<svg xmlns="http://www.w3.org/2000/svg" xmlns:xlink="http://www.w3.org/1999/xlink" width="89.645" height="275.007" viewBox="0 0 89.645 275.007">
  <defs>
    <clipPath id="clip-path">
      <rect id="Rectangle_404" data-name="Rectangle 404" width="89.645" height="275.007" fill="none"/>
    </clipPath>
    <clipPath id="clip-path-3">
      <rect id="Rectangle_400" data-name="Rectangle 400" width="40.3" height="20.572" fill="none"/>
    </clipPath>
    <clipPath id="clip-path-4">
      <rect id="Rectangle_401" data-name="Rectangle 401" width="6.799" height="15.407" fill="none"/>
    </clipPath>
    <clipPath id="clip-path-5">
      <rect id="Rectangle_402" data-name="Rectangle 402" width="21.089" height="144.227" fill="none"/>
    </clipPath>
  </defs>
  <g id="Group_402" data-name="Group 402" style="isolation: isolate">
    <g id="Group_401" data-name="Group 401" clip-path="url(#clip-path)">
      <g id="Group_400" data-name="Group 400">
        <g id="Group_399" data-name="Group 399" clip-path="url(#clip-path)">
          <path id="Path_216" data-name="Path 216" d="M87.368,233.025c0-13.538-14.4-117.237-14.115-123.863S81.319,94.471,85.64,89s6.157-23.867.288-32.838C80.114,47.273,72.389,43.2,64.373,37.327c-3.166-2.718-6.25-4.725-7.344-7.777C54.777,23.269,54.653,5.4,54.653,5.4H34.993s-.124,17.873-2.376,24.154c-1.095,3.052-4.178,5.06-7.344,7.777C17.257,43.2,9.532,47.273,3.718,56.16-2.151,65.131-.315,83.525,4.006,89s12.1,13.538,12.386,20.164S2.278,219.486,2.278,233.025v17.283h0v16.635s0,11.5,11.813,11.187c10.372-.273,8.263-8.546,13.793-8.33s3.755,3.34,7.375,6.049c4.233,3.169,14.92,3.169,19.153,0,3.62-2.709,1.844-5.833,7.375-6.049s3.421,8.057,13.793,8.33C87.4,278.441,87.4,266.943,87.4,266.943V250.308h-.029Z" transform="translate(0 -3.218)" fill="#b9eaea"/>
          <g id="Group_392" data-name="Group 392" transform="translate(8.832 42.295)" opacity="0.58">
            <g id="Group_391" data-name="Group 391">
              <g id="Group_390" data-name="Group 390" clip-path="url(#clip-path-3)">
                <path id="Path_217" data-name="Path 217" d="M26.546,111.34c-2.431,2.129-5.2,4.815-4.575,7.986a6.278,6.278,0,0,0,4.049,4.324,18.541,18.541,0,0,0,6.082.918l19.983.766c3.134.12,6.785.01,8.678-2.491a7.971,7.971,0,0,0,1.336-4.077c.443-4.478-.854-9.437-4.49-12.087-2.051-1.5-6.042-1.387-9.554-1.708-3.994-.365-13.256-.862-21.509,6.368" transform="translate(-21.882 -104.795)" fill="#fff"/>
              </g>
            </g>
          </g>
          <g id="Group_395" data-name="Group 395" transform="translate(33.75 22.46)" opacity="0.58">
            <g id="Group_394" data-name="Group 394">
              <g id="Group_393" data-name="Group 393" clip-path="url(#clip-path-4)">
                <path id="Path_218" data-name="Path 218" d="M85.989,57.846a19.553,19.553,0,0,0-.428,3.99,21.714,21.714,0,0,1-1.5,5.1c-.4,1.074-.728,2.43-.038,3.287a2.347,2.347,0,0,0,1.449.73,3.427,3.427,0,0,0,2.027-.109c1.325-.577,1.923-2.284,2.251-3.831a31.13,31.13,0,0,0,.57-8.961c-.1-1.244-.5-2.483-1.74-2.4a3.253,3.253,0,0,0-2.591,2.192" transform="translate(-83.623 -55.65)" fill="#fff"/>
              </g>
            </g>
          </g>
          <path id="Path_219" data-name="Path 219" d="M90.74,233.025c0-13.538-14.4-117.237-14.115-123.863S84.691,94.471,89.012,89s6.157-23.867.288-32.838C83.486,47.273,75.761,43.2,67.746,37.327,64.579,34.61,61.5,32.6,60.4,29.55,58.148,23.269,58.025,5.4,58.025,5.4H49.383s.124,17.873,2.376,24.154c1.095,3.052,4.178,5.06,7.344,7.777,8.016,5.87,15.74,9.946,21.554,18.833C86.527,65.131,84.691,83.525,80.37,89c-2.246,2.845-5.425,6.391-8,10.071l-28.446,8.87h24.2a9.887,9.887,0,0,0-.134,1.223C67.7,115.787,82.1,219.486,82.1,233.025v17.283h.03s2.723,21.067-1.341,22.07C72.8,274,70.694,263.972,65.163,264.186s-3.755,3.305-7.375,5.986c-4.233,3.136-14.92,3.136-19.153,0-3.62-2.681-1.844-5.772-7.375-5.986s-3.422,7.973-13.794,8.244c-11.813.308-11.813-11.07-11.813-11.07v5.7s0,11.378,11.813,11.07c10.372-.27,8.263-8.457,13.794-8.244s3.755,3.305,7.375,5.986c4.233,3.136,14.92,3.136,19.153,0,3.619-2.681,1.844-5.772,7.375-5.986s3.421,7.973,13.793,8.244c11.813.308,11.813-11.07,11.813-11.07V250.308H90.74Z" transform="translate(-3.372 -3.218)" fill="#b9eaea"/>
          <path id="Path_220" data-name="Path 220" d="M101.832,16.276h-20.5A2.929,2.929,0,0,1,78.4,13.347V2.93A2.929,2.929,0,0,1,81.333,0h20.5a2.929,2.929,0,0,1,2.929,2.929V13.347a2.929,2.929,0,0,1-2.929,2.929" transform="translate(-46.76 -0.001)" fill="#a9d8d5"/>
          <path id="Path_221" data-name="Path 221" d="M104.412,46.018H81.737a1.031,1.031,0,0,1-1.031-1.032v-.35a1.032,1.032,0,0,1,1.031-1.032h22.674a1.032,1.032,0,0,1,1.032,1.032v.35a1.032,1.032,0,0,1-1.032,1.032" transform="translate(-48.133 -26.006)" fill="#a9d8d5"/>
          <g id="Group_398" data-name="Group 398" transform="translate(12.718 108.585)" opacity="0.58">
            <g id="Group_397" data-name="Group 397">
              <g id="Group_396" data-name="Group 396" clip-path="url(#clip-path-5)">
                <path id="Path_222" data-name="Path 222" d="M48.389,269.089c-2.407.406-3.8,1.29-4.324,10.168s-12.24,121.762-12.5,124.357c-.377,3.715,1.337,9.052,5.64,9.535,4.019.452,7.744-.021,8.658-8.662s6.471-121.523,6.684-125.275.021-10.829-4.155-10.124" transform="translate(-31.511 -269.039)" fill="#fff"/>
              </g>
            </g>
          </g>
        </g>
      </g>
    </g>
  </g>
</svg>
