<svg xmlns="http://www.w3.org/2000/svg" xmlns:xlink="http://www.w3.org/1999/xlink" width="900.622" height="787.428" viewBox="0 0 900.622 787.428">
  <defs>
    <clipPath id="clip-path">
      <rect id="Rectangle_379" data-name="Rectangle 379" width="900.622" height="787.428" fill="none"/>
    </clipPath>
    <clipPath id="clip-path-3">
      <rect id="Rectangle_349" data-name="Rectangle 349" width="901" height="778" transform="translate(-0.378 0.259)" fill="none"/>
    </clipPath>
    <clipPath id="clip-path-4">
      <rect id="Rectangle_350" data-name="Rectangle 350" width="15.997" height="15.997" fill="none"/>
    </clipPath>
    <clipPath id="clip-path-5">
      <rect id="Rectangle_351" data-name="Rectangle 351" width="56.34" height="15.31" fill="none"/>
    </clipPath>
    <clipPath id="clip-path-6">
      <rect id="Rectangle_352" data-name="Rectangle 352" width="15.996" height="15.997" fill="none"/>
    </clipPath>
    <clipPath id="clip-path-7">
      <rect id="Rectangle_353" data-name="Rectangle 353" width="56.341" height="15.31" fill="none"/>
    </clipPath>
    <clipPath id="clip-path-8">
      <rect id="Rectangle_354" data-name="Rectangle 354" width="469.137" height="13.177" fill="none"/>
    </clipPath>
    <clipPath id="clip-path-9">
      <rect id="Rectangle_356" data-name="Rectangle 356" width="183.006" height="143.816" fill="none"/>
    </clipPath>
    <clipPath id="clip-path-10">
      <rect id="Rectangle_355" data-name="Rectangle 355" width="106.845" height="83.487" fill="none"/>
    </clipPath>
    <clipPath id="clip-path-11">
      <rect id="Rectangle_357" data-name="Rectangle 357" width="98.844" height="260.38" fill="none"/>
    </clipPath>
    <clipPath id="clip-path-12">
      <rect id="Rectangle_358" data-name="Rectangle 358" width="98.823" height="260.353" fill="none"/>
    </clipPath>
    <clipPath id="clip-path-13">
      <rect id="Rectangle_359" data-name="Rectangle 359" width="65.898" height="38.155" fill="none"/>
    </clipPath>
    <clipPath id="clip-path-14">
      <rect id="Rectangle_360" data-name="Rectangle 360" width="66.012" height="38.179" fill="none"/>
    </clipPath>
    <clipPath id="clip-path-15">
      <rect id="Rectangle_361" data-name="Rectangle 361" width="31.776" height="215.191" fill="none"/>
    </clipPath>
    <clipPath id="clip-path-16">
      <rect id="Rectangle_362" data-name="Rectangle 362" width="20.831" height="202.86" fill="none"/>
    </clipPath>
    <clipPath id="clip-path-17">
      <rect id="Rectangle_363" data-name="Rectangle 363" width="141.227" height="443.608" fill="none"/>
    </clipPath>
    <clipPath id="clip-path-18">
      <rect id="Rectangle_365" data-name="Rectangle 365" width="24.571" height="13.97" fill="none"/>
    </clipPath>
    <clipPath id="clip-path-19">
      <rect id="Rectangle_366" data-name="Rectangle 366" width="5.353" height="9.03" fill="none"/>
    </clipPath>
    <clipPath id="clip-path-20">
      <rect id="Rectangle_367" data-name="Rectangle 367" width="28.03" height="85.466" fill="none"/>
    </clipPath>
    <clipPath id="clip-path-21">
      <rect id="Rectangle_369" data-name="Rectangle 369" width="45.462" height="21.552" fill="none"/>
    </clipPath>
    <clipPath id="clip-path-22">
      <rect id="Rectangle_370" data-name="Rectangle 370" width="63.25" height="62.233" fill="none"/>
    </clipPath>
    <clipPath id="clip-path-23">
      <rect id="Rectangle_371" data-name="Rectangle 371" width="52.098" height="96.343" fill="none"/>
    </clipPath>
    <clipPath id="clip-path-24">
      <rect id="Rectangle_372" data-name="Rectangle 372" width="31.285" height="62.421" fill="none"/>
    </clipPath>
    <clipPath id="clip-path-25">
      <rect id="Rectangle_373" data-name="Rectangle 373" width="7.013" height="9.431" fill="none"/>
    </clipPath>
    <clipPath id="clip-path-26">
      <rect id="Rectangle_374" data-name="Rectangle 374" width="56.422" height="120.609" fill="none"/>
    </clipPath>
    <clipPath id="clip-path-27">
      <rect id="Rectangle_375" data-name="Rectangle 375" width="27.749" height="3.067" fill="none"/>
    </clipPath>
    <clipPath id="clip-path-28">
      <rect id="Rectangle_376" data-name="Rectangle 376" width="21.744" height="177.192" fill="none"/>
    </clipPath>
    <clipPath id="clip-path-29">
      <rect id="Rectangle_377" data-name="Rectangle 377" width="445.846" height="38.778" fill="none"/>
    </clipPath>
  </defs>
  <g id="Group_363" data-name="Group 363" transform="translate(0 139)">
    <g id="Group_362" data-name="Group 362" transform="translate(0 -139)" clip-path="url(#clip-path)">
      <g id="Group_361" data-name="Group 361">
        <g id="Group_360" data-name="Group 360" clip-path="url(#clip-path)">
          <g id="Group_281" data-name="Group 281" opacity="0.2">
            <g id="Group_280" data-name="Group 280">
              <g id="Group_279" data-name="Group 279" clip-path="url(#clip-path-3)">
                <path id="Path_108" data-name="Path 108" d="M141.416,777.946H759.207c87.058-82.109,141.416-198.517,141.416-327.635C900.622,201.611,699.012,0,450.311,0S0,201.611,0,450.311C0,579.429,54.357,695.837,141.416,777.946" fill="#fcd3d5"/>
              </g>
            </g>
          </g>
          <line id="Line_16" data-name="Line 16" x2="756.253" transform="translate(72.184 784.436)" fill="none" stroke="#191516" stroke-miterlimit="10" stroke-width="2"/>
          <line id="Line_17" data-name="Line 17" x2="38.897" transform="translate(8.976 784.436)" fill="none" stroke="#191516" stroke-miterlimit="10" stroke-width="2"/>
          <line id="Line_18" data-name="Line 18" x2="38.897" transform="translate(852.749 784.436)" fill="none" stroke="#191516" stroke-miterlimit="10" stroke-width="2"/>
          <path id="Path_109" data-name="Path 109" d="M181.344,303.735C195.4,279.744,259.09,180.059,348.438,177.193a4.776,4.776,0,0,1,4.862,5.766c-6.583,30.11-43.511,165.535-169.176,127.745a4.77,4.77,0,0,1-2.78-6.969" transform="translate(359.957 352.98)" fill="#498963"/>
          <line id="Line_19" data-name="Line 19" y1="114.63" x2="140.982" transform="translate(564.554 540.175)" fill="#498963"/>
          <line id="Line_20" data-name="Line 20" y1="114.63" x2="140.982" transform="translate(564.554 540.175)" fill="none" stroke="#d4e670" stroke-linecap="round" stroke-linejoin="round" stroke-width="1.761"/>
          <path id="Path_110" data-name="Path 110" d="M182,352.08c2.783-47.736,18.742-168.772,108.529-197.356A11.615,11.615,0,0,1,305.776,165.5c.578,38.314-7.441,143.289-106.647,197.389A11.594,11.594,0,0,1,182,352.08" transform="translate(362.519 307.094)" fill="#77a68a"/>
          <line id="Line_21" data-name="Line 21" x1="100.137" y2="172.602" transform="translate(554.671 474.296)" fill="none" stroke="#d4e670" stroke-linecap="round" stroke-linejoin="round" stroke-width="1.761"/>
          <path id="Path_111" data-name="Path 111" d="M125.3,368.624c-16.421-10.706-29.218-27.47-33.329-46.635-2.845-13.273-1.625-27.464-6.729-40.043-6.8-16.771-23.228-27.171-37.709-38.03C29.456,230.362,12.517,213.6,5.492,192.126c-3.414-10.433-3.836-23.171,3.758-31.1a27.354,27.354,0,0,1,11.885-6.792c16.522-5.084,34.807-.147,49.456,9.036,6.613,4.147,12.725,9.144,19.76,12.528,10.975,5.278,23.425,6.283,35.358,8.716,21.394,4.362,43,14.67,53.966,33.55,10.505,18.093,9.623,41.058,19.951,59.25,5.057,8.9,12.612,16.295,16.89,25.594,9.509,20.666.577,45.264-12.336,63.992-8.893,12.9-17.013,20.64-32.617,17.7-16.361-3.085-32.111-6.738-46.264-15.969" transform="translate(6.267 303.178)" fill="#77a68a"/>
          <line id="Line_22" data-name="Line 22" x2="193.239" y2="203.46" transform="translate(22.136 469.534)" fill="none" stroke="#e2ef9f" stroke-linecap="round" stroke-linejoin="round" stroke-width="1.761"/>
          <line id="Line_23" data-name="Line 23" x2="8.079" y2="51.419" transform="translate(57.941 465.079)" fill="none" stroke="#e2ef9f" stroke-linecap="round" stroke-linejoin="round" stroke-width="1.761"/>
          <line id="Line_24" data-name="Line 24" y1="15.338" x2="47.883" transform="translate(114.731 617.789)" fill="none" stroke="#e2ef9f" stroke-linecap="round" stroke-linejoin="round" stroke-width="1.761"/>
          <line id="Line_25" data-name="Line 25" x2="5.96" y2="87.639" transform="translate(121.76 493.184)" fill="none" stroke="#e2ef9f" stroke-linecap="round" stroke-linejoin="round" stroke-width="1.761"/>
          <line id="Line_26" data-name="Line 26" x2="7.283" y2="101.636" transform="translate(135.513 494.958)" fill="none" stroke="#e2ef9f" stroke-linecap="round" stroke-linejoin="round" stroke-width="1.761"/>
          <path id="Path_112" data-name="Path 112" d="M125.465,272.122a30.53,30.53,0,1,1-30.528-30.528,30.528,30.528,0,0,1,30.528,30.528" transform="translate(128.301 481.279)" fill="#474445"/>
          <path id="Path_113" data-name="Path 113" d="M99.876,261.9a15.168,15.168,0,1,1-15.17-15.17,15.17,15.17,0,0,1,15.17,15.17" transform="translate(138.529 491.505)" fill="#7a857a"/>
          <g id="Group_284" data-name="Group 284" transform="translate(215.238 745.403)" opacity="0.5" style="mix-blend-mode: multiply;isolation: isolate">
            <g id="Group_283" data-name="Group 283">
              <g id="Group_282" data-name="Group 282" clip-path="url(#clip-path-4)">
                <path id="Path_114" data-name="Path 114" d="M87.932,257.122a8,8,0,1,1-8-8,8,8,0,0,1,8,8" transform="translate(-71.934 -249.122)" fill="#858585"/>
              </g>
            </g>
          </g>
          <path id="Path_115" data-name="Path 115" d="M118.761,249.106H105.8v22.162a8.947,8.947,0,0,1-16.205,5.242L73.407,254.139l-10.984-15.23,56.26-.081Z" transform="translate(124.353 475.769)" fill="#d9d9d9"/>
          <g id="Group_287" data-name="Group 287" transform="translate(186.773 714.597)" opacity="0.7" style="mix-blend-mode: multiply;isolation: isolate">
            <g id="Group_286" data-name="Group 286">
              <g id="Group_285" data-name="Group 285" clip-path="url(#clip-path-5)">
                <path id="Path_116" data-name="Path 116" d="M118.761,249.106H105.8v1.448l-32.387,3.585-10.987-15.23,56.26-.081Z" transform="translate(-62.421 -238.829)" fill="#d9d9d9"/>
              </g>
            </g>
          </g>
          <path id="Path_117" data-name="Path 117" d="M166.043,272.122a30.53,30.53,0,1,0,30.528-30.528,30.528,30.528,0,0,0-30.528,30.528" transform="translate(330.774 481.279)" fill="#474445"/>
          <path id="Path_118" data-name="Path 118" d="M171.177,261.9a15.168,15.168,0,1,0,15.17-15.17,15.17,15.17,0,0,0-15.17,15.17" transform="translate(341.002 491.505)" fill="#7a857a"/>
          <g id="Group_290" data-name="Group 290" transform="translate(519.348 745.403)" opacity="0.5" style="mix-blend-mode: multiply;isolation: isolate">
            <g id="Group_289" data-name="Group 289">
              <g id="Group_288" data-name="Group 288" clip-path="url(#clip-path-6)">
                <path id="Path_119" data-name="Path 119" d="M173.573,257.122a8,8,0,1,0,8-8,8,8,0,0,0-8,8" transform="translate(-173.573 -249.122)" fill="#858585"/>
              </g>
            </g>
          </g>
          <path id="Path_120" data-name="Path 120" d="M169.6,249.106h12.965v22.162a8.947,8.947,0,0,0,16.205,5.242l16.181-22.372,10.987-15.23-56.257-.081Z" transform="translate(337.866 475.769)" fill="#d9d9d9"/>
          <g id="Group_293" data-name="Group 293" transform="translate(507.469 714.597)" opacity="0.7" style="mix-blend-mode: multiply;isolation: isolate">
            <g id="Group_292" data-name="Group 292">
              <g id="Group_291" data-name="Group 291" clip-path="url(#clip-path-7)">
                <path id="Path_121" data-name="Path 121" d="M169.6,249.106h12.965v1.448l32.386,3.585,10.987-15.23-56.257-.081Z" transform="translate(-169.603 -238.829)" fill="#d9d9d9"/>
              </g>
            </g>
          </g>
          <path id="Path_122" data-name="Path 122" d="M94.616,467.049H467.228a3.691,3.691,0,0,0,1.673-.356,8.535,8.535,0,0,0,4.569-6.31c6.454-41.934,38.81-253.892,43.852-322.291a9.133,9.133,0,0,0-9.108-9.817H55.931a9.126,9.126,0,0,0-9.117,9.712c4.108,64.234,37.533,283.205,44.107,325.9a3.736,3.736,0,0,0,3.7,3.16" transform="translate(93.22 255.535)" fill="#d4e670"/>
          <g id="Group_296" data-name="Group 296" transform="translate(140.698 402.33)" opacity="0.41">
            <g id="Group_295" data-name="Group 295">
              <g id="Group_294" data-name="Group 294" clip-path="url(#clip-path-8)">
                <path id="Path_123" data-name="Path 123" d="M516.16,134.464c-.368,4.057-.79,8.459-1.293,13.177H48.235c-.449-4.772-.868-9.171-1.212-13.177Z" transform="translate(-47.023 -134.464)" fill="#89a10c"/>
              </g>
            </g>
          </g>
          <g id="Group_302" data-name="Group 302" transform="translate(172.312 572.919)" opacity="0.5" style="mix-blend-mode: screen;isolation: isolate">
            <g id="Group_301" data-name="Group 301">
              <g id="Group_300" data-name="Group 300" clip-path="url(#clip-path-9)">
                <path id="Path_124" data-name="Path 124" d="M63.767,193.361a3.238,3.238,0,0,0-6.161,1.673c3.474,36.022,13.464,131.742,22.01,137.086,7.435,4.644,102.45,3.175,157.824,1.9a3.236,3.236,0,0,0,.353-6.442L95.561,307.848a3.227,3.227,0,0,1-2.738-2.621c-2.418-13.384-15.182-81.75-29.056-111.866" transform="translate(-57.589 -191.477)" fill="#83f7da"/>
                <g id="Group_299" data-name="Group 299" transform="translate(10.058 58.309)" opacity="0.6" style="mix-blend-mode: screen;isolation: isolate">
                  <g id="Group_298" data-name="Group 298">
                    <g id="Group_297" data-name="Group 297" clip-path="url(#clip-path-10)">
                      <path id="Path_125" data-name="Path 125" d="M84.341,291.67a15.835,15.835,0,0,1-13.363-12.456c-4.165-20.194-12.615-63.57-9.258-67.936,4.392-5.709,22.4,68.516,22.4,68.516s74.225,3.953,83.01,10.1c7.654,5.356-52.4,6.047-82.788,1.774" transform="translate(-60.951 -210.964)" fill="#83f7da"/>
                    </g>
                  </g>
                </g>
              </g>
            </g>
          </g>
          <path id="Path_126" data-name="Path 126" d="M545.693,153.836H41.108l84.521-49.412a28.679,28.679,0,0,1,14.329-3.839H446.774a28.68,28.68,0,0,1,14.329,3.839Z" transform="translate(81.891 200.377)" fill="#88990a"/>
          <path id="Path_127" data-name="Path 127" d="M208.3,404.2H156.75a8.317,8.317,0,0,1-8.369-8.976l14.266-238.066c.44-7.328,5.7-13.324,11.744-13.324h63.364c6.044,0,10.218,6,9.332,13.324L218.294,395.227A10.363,10.363,0,0,1,208.3,404.2" transform="translate(295.557 286.538)" fill="#d4e670"/>
          <g id="Group_305" data-name="Group 305" transform="translate(443.926 430.369)" opacity="0.41">
            <g id="Group_304" data-name="Group 304">
              <g id="Group_303" data-name="Group 303" clip-path="url(#clip-path-11)">
                <path id="Path_128" data-name="Path 128" d="M247.095,157.169l-28.8,238.06a10.385,10.385,0,0,1-9.988,8.985H156.736a8.323,8.323,0,0,1-8.354-8.985l.027-.236h50.674A10.38,10.38,0,0,0,209.068,386l28.8-238.06a15.408,15.408,0,0,0-.054-4.108c6.008.051,10.146,6.032,9.276,13.333" transform="translate(-148.365 -143.833)" fill="#89a10c"/>
              </g>
            </g>
          </g>
          <path id="Path_129" data-name="Path 129" d="M159.909,404.2H108.356a10.363,10.363,0,0,1-9.991-8.976L69.572,157.161c-.886-7.328,3.288-13.324,9.332-13.324h63.364c6.044,0,11.3,6,11.744,13.324l14.263,238.066a8.313,8.313,0,0,1-8.366,8.976" transform="translate(138.358 286.538)" fill="#d4e670"/>
          <g id="Group_308" data-name="Group 308" transform="translate(207.82 430.396)" opacity="0.41">
            <g id="Group_307" data-name="Group 307">
              <g id="Group_306" data-name="Group 306" clip-path="url(#clip-path-12)">
                <path id="Path_130" data-name="Path 130" d="M168.26,395.186v.027a8.294,8.294,0,0,1-8.354,8.985H108.337a10.383,10.383,0,0,1-9.988-8.985L69.575,157.153c-.871-7.22,3.16-13.15,9.063-13.309a14.583,14.583,0,0,0-.078,4.3l28.8,238.061a10.385,10.385,0,0,0,9.988,8.985Z" transform="translate(-69.455 -143.844)" fill="#89a10c"/>
              </g>
            </g>
          </g>
          <g id="Group_311" data-name="Group 311" transform="translate(152.368 306.969)" opacity="0.3">
            <g id="Group_310" data-name="Group 310">
              <g id="Group_309" data-name="Group 309" clip-path="url(#clip-path-13)">
                <path id="Path_131" data-name="Path 131" d="M116.821,102.593v38.155h-65.9l59.4-35.714a20.6,20.6,0,0,1,6.5-2.442" transform="translate(-50.924 -102.593)" fill="#515915"/>
              </g>
            </g>
          </g>
          <g id="Group_314" data-name="Group 314" transform="translate(532.202 306.945)" opacity="0.15">
            <g id="Group_313" data-name="Group 313">
              <g id="Group_312" data-name="Group 312" clip-path="url(#clip-path-14)">
                <path id="Path_132" data-name="Path 132" d="M243.881,140.764H177.869V102.585a20.7,20.7,0,0,1,6.633,2.465Z" transform="translate(-177.869 -102.585)" fill="#5c6b08"/>
              </g>
            </g>
          </g>
          <path id="Path_133" data-name="Path 133" d="M157.443,188.743l-15.415,26.728-32.9-18.871,17.417-30.229a14.476,14.476,0,0,1,12.767-7.259l2.074.024Z" transform="translate(217.392 316.964)" fill="#fff"/>
          <path id="Path_134" data-name="Path 134" d="M187.958,174.409,173.925,214.8l-41.219-8.088,10.876-6.657-7.974-13.779-.045.093-14.769-27.234,34.882.53A14.454,14.454,0,0,1,168,166.919l8.342,14.518Z" transform="translate(240.634 317.011)" fill="#fff"/>
          <path id="Path_135" data-name="Path 135" d="M155.313,216.777l-11.382-5.736-3.181,5.921-20,34.262-17.513-29.149a14.478,14.478,0,0,1-.344-14.308l7.926-14.745-12.1-6.176,41.728-9.377Z" transform="translate(196.666 353.538)" fill="#fff"/>
          <path id="Path_136" data-name="Path 136" d="M155.818,230.921l-34.84,1.152a14.444,14.444,0,0,1-12.9-7l-1.544-2.582,16.633-28.431,31.336-1.038Z" transform="translate(212.222 384.509)" fill="#fff"/>
          <path id="Path_137" data-name="Path 137" d="M184.453,229.5l-1.843,3.088a14.446,14.446,0,0,1-12.441,7.1l-16.753.045.323,13.548-28.063-32.258,27.509-31.749.368,12.764,13.94-.069Z" transform="translate(250.359 377.039)" fill="#fff"/>
          <path id="Path_138" data-name="Path 138" d="M184.891,222.2l-17,28.685L139.154,204.3l-4.491-7.744,32.716-19.17L184.96,207.5a14.475,14.475,0,0,1-.069,14.7" transform="translate(268.262 353.367)" fill="#fff"/>
          <path id="Path_139" data-name="Path 139" d="M262.933,244.086c12.357,21.262,20.589,35.534,20.589,35.534l19.425-.377q-5.668-17.979-11.514-35.157Z" transform="translate(523.789 486.244)" fill="#ff9e6e"/>
          <path id="Path_140" data-name="Path 140" d="M287.543,255.836l-26.42,12.229-.1,3.71h40.9a5.5,5.5,0,0,0,5.461-5.8l-.628-10.143Z" transform="translate(519.98 509.651)" fill="#0a211d"/>
          <path id="Path_141" data-name="Path 141" d="M220.855,244.086c.413,16.062.751,28.817.966,36.779H241.6q4-19.371,7.253-36.779Z" transform="translate(439.965 486.244)" fill="#ff9e6e"/>
          <path id="Path_142" data-name="Path 142" d="M239.043,255.836l-26.42,12.229-.1,3.71h40.908a5.493,5.493,0,0,0,5.458-5.8l-.628-10.143Z" transform="translate(423.363 509.651)" fill="#0a211d"/>
          <path id="Path_143" data-name="Path 143" d="M390.026,548.435H364.593S298.857,440.6,272.915,393l-1.706,13.913-17.324,140.03H221.72l-3.411-334.756a132.224,132.224,0,0,1,13.824-60.231L248.8,118.47l6.792-13.644,12.507.6h40.393l-.09.658c8.438-.329,14.841-.658,14.841-.658,67.113,45.48-1.287,250.768-1.287,250.768Z" transform="translate(434.881 208.824)" fill="#f54e56"/>
          <g id="Group_317" data-name="Group 317" transform="translate(680.149 400.541)" opacity="0.6" style="mix-blend-mode: multiply;isolation: isolate">
            <g id="Group_316" data-name="Group 316">
              <g id="Group_315" data-name="Group 315" clip-path="url(#clip-path-15)">
                <path id="Path_144" data-name="Path 144" d="M254.962,335.145l-1.706,13.913c-8.5-13.794-22.471-37.222-25.552-46.976-4.428-14,30.37-163.818,31.387-168.216-.449,3.71-15.738,122.257-18.671,149.515-2.992,27.677,14.542,51.763,14.542,51.763" transform="translate(-227.315 -133.866)" fill="#f2222c"/>
              </g>
            </g>
          </g>
          <g id="Group_320" data-name="Group 320" transform="translate(691.124 398.955)" style="mix-blend-mode: screen;isolation: isolate">
            <g id="Group_319" data-name="Group 319">
              <g id="Group_318" data-name="Group 318" clip-path="url(#clip-path-16)">
                <path id="Path_145" data-name="Path 145" d="M246.85,336.2l-4.988-8.812a80.665,80.665,0,0,1-9.781-50.27L251,133.335" transform="translate(-230.169 -133.338)" fill="#f2222c"/>
                <path id="Path_146" data-name="Path 146" d="M247.663,336.2c-12.474-17.9-19.329-39.918-15.72-61.76l1.625-12.851c3.085-24.924,6.8-52.308,10.344-77.029,2.208-14.943,5.374-36.5,7.9-51.222-1.367,14.775-3.872,36.525-5.616,51.521-2.965,24.754-6.466,52.245-9.934,77.085L234.5,274.775c-3.974,21.459,2.133,42.973,13.159,61.422" transform="translate(-230.983 -133.338)" fill="#ffbb4d"/>
              </g>
            </g>
          </g>
          <g id="Group_323" data-name="Group 323" transform="translate(683.68 313.65)" opacity="0.6" style="mix-blend-mode: multiply;isolation: isolate">
            <g id="Group_322" data-name="Group 322">
              <g id="Group_321" data-name="Group 321" clip-path="url(#clip-path-17)">
                <path id="Path_147" data-name="Path 147" d="M369.722,548.435h-2.9c-4.428-9.006-7.091-18.76-10.712-28.126-6.373-16.427-15.679-31.537-23.727-47.245a333.6,333.6,0,0,1-30.849-90.272c-.957-5.146-1.915-10.592-5.146-14.721-3.231-4.159-9.575-6.4-13.883-3.381a40.647,40.647,0,0,0,5.775-11.28,30.912,30.912,0,0,1-10.472-6.074c4.458-.419,10.622-.9,14.871.628,19.646-48.765,24.155-100.693,23.4-142.086-.754-41.524-31.079-76.1-72.02-83.082l-.634-.108a61.844,61.844,0,0,1-14.931-4.219l6.792-13.644,12.507.6h40.393l-.09.658c8.438-.329,14.841-.658,14.841-.658,67.113,45.48-1.287,250.768-1.287,250.768Z" transform="translate(-228.495 -104.826)" fill="#f2222c"/>
              </g>
            </g>
          </g>
          <path id="Path_148" data-name="Path 148" d="M375.476,96.773c-5.505,10.472-12.208,23.1-19.06,35.067-5.535,9.694-11.131,18.94-16.247,26.33Q334.02,167.013,327.213,176a26.837,26.837,0,0,1-2.992,3.351,30.4,30.4,0,0,1-28.156,7.869q-8.438-1.93-16.935-4.249c-10.113-2.753-20.2-5.954-30.16-9.664-4.757-1.735-9.485-3.62-14.153-5.6a273.273,273.273,0,0,1-29.083-14.362c-6.433-.3-20.047-1.287-24.356-4.339-1.257-.928,1.8-1.526,5.924-1.526,0,0-10.233-3.082-11.19-3.979-.987-.928,14.661.329,14.661.329s-16.157-4.009-16.457-5.505c-.239-1.406,13.614.628,15.32.868-1.526-.419-12.776-3.381-12.956-4.757-.18-1.5,18.371,1.586,18.371,1.586s-3.8-6.672-1.735-7.181,8.288,4.279,10.353,6.493a11.835,11.835,0,0,0,4.249,2.065v-.03s11.131,2.663,29.742,6.224c15.828,3.052,37.1,6.7,61.547,9.934,7.211-10.981,16.307-26.719,25.283-43.056,5.894-10.652,11.729-21.573,17-31.567a18.98,18.98,0,0,1,26.57-7.48c.12.09.239.15.329.209a19.03,19.03,0,0,1,7.091,25.134" transform="translate(347.251 136.898)" fill="#ffc8b0"/>
          <path id="Path_149" data-name="Path 149" d="M316.134,104.04c-5.535,9.694-11.131,18.94-16.247,26.33q-6.149,8.842-12.956,17.833a26.837,26.837,0,0,1-2.992,3.351c-7.794-.7-18.165-7.292-26.366-13.5a73.458,73.458,0,0,0-34.005-14.2,8.9,8.9,0,0,0-9.706,6.017l-5.173,15.643c-4.757-1.735-9.485-3.62-14.153-5.6l2.842-24.116c15.828,3.052,37.1,6.7,61.547,9.934,7.211-10.981,16.307-26.719,25.283-43.056Z" transform="translate(387.533 164.699)" fill="#efb39e"/>
          <path id="Path_150" data-name="Path 150" d="M220.278,131.96s25.433,17.7,34.909,18.452c0,0,30.917-46.378,32.165-60.59s-10.224-24.436-26.929-20.945c0,0-9.228,6.732-13.464,15.457s-26.681,47.625-26.681,47.625" transform="translate(438.816 135.839)" fill="#fff"/>
          <rect id="Rectangle_364" data-name="Rectangle 364" width="34.554" height="26.062" transform="translate(712.299 196.881) rotate(-89.493)" fill="#ffc8b0"/>
          <path id="Path_151" data-name="Path 151" d="M238.212,56.448l-.1,10.975s16.169-1.535,22.225-9.485Z" transform="translate(474.351 112.45)" fill="#efb39e"/>
          <path id="Path_152" data-name="Path 152" d="M321.855,108.434c.126-7.39-2.528-14.2-6.651-20.331-5.47-8.13-13.545-14-22.36-18.273a33.883,33.883,0,0,1-8.851-6.3h-25.1S245.284,77.918,238.3,84.9s-14.96,28.425-7.98,45.878,5.984,57.1,5.984,57.1c34.909,8.477,69.318,0,69.318,0-1.505-12.686,12-56.691,16.229-79.443" transform="translate(453.455 126.55)" fill="#fff"/>
          <path id="Path_153" data-name="Path 153" d="M233.752,118.283c-2.466-7.2-6.535-13.889-6.511-21.5-.236-7.417.159-15.655,4.641-21.881-2.72,9.658-2.133,19.927-.793,29.735a47.439,47.439,0,0,1,2.663,13.65" transform="translate(452.582 149.204)" fill="#e8e8e8"/>
          <path id="Path_154" data-name="Path 154" d="M367.623,101.08a16.675,16.675,0,0,1-1.556,1.706c-14.153,13.853-33.512,32.375-49.011,44.732-9.425-6.283-13.375-27.976-13.375-27.976L282.737,134.5s-1.5,20.705-3.74,19.957-3.979-15.2-3.979-15.2L200.185,93.151c11.639,6.822,39.526,22.68,75.82,40.034,16.965-13.554,42.787-37.94,63.283-57.9a17.486,17.486,0,0,1,3.86-2.872c7.391,8.348,18.431,21.423,24.475,28.664" transform="translate(398.789 144.26)" fill="#efb39e"/>
          <path id="Path_155" data-name="Path 155" d="M235.2,110.69s41.39-44.633,54.106-41.141,21.693,21.193,13.716,36.4-47.126,43.134-47.126,43.134-20.7-12.217-20.7-38.4" transform="translate(468.532 138.16)" fill="#fff"/>
          <path id="Path_156" data-name="Path 156" d="M241.445,122.645l2,1.248S277.6,100.7,290.067,82c0,0-11.469,25.433-44.633,44.382Z" transform="translate(480.983 163.358)" fill="#e8e8e8"/>
          <path id="Path_157" data-name="Path 157" d="M284.387,65.381c-.123-.036-.242-.036-.365-.063l.287-1.619A23.624,23.624,0,0,0,265.16,36.322l-.209-.03a23.581,23.581,0,0,0-27.108,19.179l-2.483,14.063-.569,3.2-.3,1.586a23.412,23.412,0,0,0,.718,11.1,20.118,20.118,0,0,0,.958,2.543,23.552,23.552,0,0,0,44.69-4.973c3.626-.305,7.645-5.054,8.623-8.513a7.374,7.374,0,0,0-5.093-9.1" transform="translate(466.424 71.651)" fill="#ffc8b0"/>
          <path id="Path_158" data-name="Path 158" d="M255.964,47.177a5.859,5.859,0,0,0-2.436-.06,6.132,6.132,0,0,0-2.34.892,4.743,4.743,0,0,0-1.69,1.912,4.275,4.275,0,0,0-.4,2.433,9.613,9.613,0,0,1,1.125-1.993,6.624,6.624,0,0,1,1.571-1.433,16.5,16.5,0,0,1,4.171-1.75" transform="translate(496.169 93.667)" fill="#efb39e"/>
          <path id="Path_159" data-name="Path 159" d="M251.63,53.9a4.554,4.554,0,0,0,.793-3.7,3.527,3.527,0,0,0-.99-1.756,3.022,3.022,0,0,0-1.744-.835,7.959,7.959,0,0,1,1.086,1.37,5.441,5.441,0,0,1,.578,1.472,17.567,17.567,0,0,1,.278,3.444" transform="translate(497.404 94.844)" fill="#efb39e"/>
          <path id="Path_160" data-name="Path 160" d="M249.666,50.508a14.716,14.716,0,0,1-5.637,1.8,6.249,6.249,0,0,1-2.744-.443,13.99,13.99,0,0,1-2.669-1.451,6.008,6.008,0,0,0,2.187,2.415,5.5,5.5,0,0,0,3.285.859,7.4,7.4,0,0,0,5.577-3.175" transform="translate(475.347 100.42)" fill="#2e3604"/>
          <path id="Path_161" data-name="Path 161" d="M242.08,46.077a32.047,32.047,0,0,0-.458,3.537,5.529,5.529,0,0,1-.984,3.049l-1.02,1.448a2.828,2.828,0,0,0-.562,1.978,3.179,3.179,0,0,0,2.893,2.244c-1.017-.536-2.023-1.43-2.05-2.337.015-.844.969-1.706,1.649-2.711a5.376,5.376,0,0,0,.919-3.653,29.672,29.672,0,0,0-.386-3.555" transform="translate(476.159 91.79)" fill="#efb39e"/>
          <path id="Path_162" data-name="Path 162" d="M254.115,47.625a8.449,8.449,0,0,0-2.445-2.133,9.3,9.3,0,0,0-3.043-1.173,9.569,9.569,0,0,0-6.34.8,1.166,1.166,0,0,0,.724,2.187l.069-.012c.9-.147,1.75-.335,2.606-.434a13.062,13.062,0,0,1,2.558-.078,10.5,10.5,0,0,1,2.519.568,9.956,9.956,0,0,1,2.328,1.2l.075.054a.688.688,0,0,0,.949-.981" transform="translate(481.404 87.854)" fill="#2e3604"/>
          <path id="Path_163" data-name="Path 163" d="M236.322,48.388a9.984,9.984,0,0,1,2.349-1.158,10.508,10.508,0,0,1,2.528-.524,13.043,13.043,0,0,1,2.555.123c.856.114,1.7.317,2.6.479l.069.015a1.168,1.168,0,0,0,.766-2.175,9.567,9.567,0,0,0-6.328-.913,9.275,9.275,0,0,0-3.061,1.119,8.456,8.456,0,0,0-2.483,2.088.689.689,0,0,0,.931,1Z" transform="translate(468.456 87.755)" fill="#2e3604"/>
          <path id="Path_164" data-name="Path 164" d="M245.5,49.45c.533-.162.673-.563.952-.9a4.061,4.061,0,0,0,.619-1.1.351.351,0,0,0-.6-.341l-.021.024a5.144,5.144,0,0,1-2.519,1.08Z" transform="translate(485.933 93.581)" fill="#2e3604"/>
          <path id="Path_165" data-name="Path 165" d="M241.757,49.526a4.4,4.4,0,0,1,4.039-2.585,4.3,4.3,0,0,1,2.439.769,4.626,4.626,0,0,1,1.61,1.816,11.1,11.1,0,0,0-4.057-1.092,9.221,9.221,0,0,0-4.03,1.092" transform="translate(481.604 93.511)" fill="#2e3604"/>
          <path id="Path_166" data-name="Path 166" d="M237.038,49.45c-.533-.162-.676-.563-.951-.9a4.061,4.061,0,0,1-.619-1.1.351.351,0,0,1,.6-.341l.021.024a5.144,5.144,0,0,0,2.519,1.08Z" transform="translate(469.029 93.581)" fill="#2e3604"/>
          <path id="Path_167" data-name="Path 167" d="M244.061,49.526a9.221,9.221,0,0,0-4.03-1.092,11.1,11.1,0,0,0-4.057,1.092,4.626,4.626,0,0,1,1.61-1.816,4.3,4.3,0,0,1,2.439-.769,4.4,4.4,0,0,1,4.039,2.585" transform="translate(470.082 93.511)" fill="#2e3604"/>
          <path id="Path_168" data-name="Path 168" d="M243.128,55.959a7.95,7.95,0,1,0,8.019-7.878,7.95,7.95,0,0,0-8.019,7.878" transform="translate(484.335 95.782)" fill="#efb39e"/>
          <path id="Path_169" data-name="Path 169" d="M245.532,56.125a7.988,7.988,0,0,1-8.019,7.869,6.629,6.629,0,0,1-1.346-.15,20.118,20.118,0,0,1-.958-2.543,23.412,23.412,0,0,1-.718-11.1l.3-1.586a7.4,7.4,0,0,1,2.842-.539,8,8,0,0,1,7.9,8.049" transform="translate(466.424 95.772)" fill="#efb39e"/>
          <path id="Path_170" data-name="Path 170" d="M326.1,94.978c-1.2-6.373-5.3-12.387-4.309-18.79a43.4,43.4,0,0,1,1.287-4.787,26.448,26.448,0,0,0-.449-16.457A20.752,20.752,0,0,0,311.5,43.1a7.985,7.985,0,0,0-4.907-5.206c-32.1-12.1-45.51,18.342-49.7,21.753-1.735,1.436-3.561,2.753-5.236,4.279a28.872,28.872,0,0,0-3.86,38.239c-1.706,6.014-5.565,11.34-9.635,16.1-4.069,4.728-8.5,9.216-11.849,14.512a43.745,43.745,0,0,0-4.847,10.293c-1.945,5.984-2.543,12.567-.509,18.521a38.693,38.693,0,0,0,4.7,8.857c2.184,3.231,4.488,6.4,6.912,9.485.209-.269.419-.509.658-.778,5.3-9.6,10.622-19.479,15.5-28.724a20.91,20.91,0,0,1,2.364-4.428,1.121,1.121,0,0,1,.209-.359,18.6,18.6,0,0,1,5.954-6.583c3.83-3.5,8.049-6.672,11.4-10.442,2.753-2.842,4.518-6.224,6.044-8.378h.03l.18-19.449a23.553,23.553,0,0,1-9.964-11.011,20.118,20.118,0,0,1-.958-2.543,23.412,23.412,0,0,1-.718-11.1l.3-1.586.569-3.2,1.505-8.521c.051-.027.1-.066.147-.09a18.657,18.657,0,0,1,3.752-1.05,17.118,17.118,0,0,0,8.725-5.3c1.215-1.382,2.205-2.962,3.51-4.261a7.718,7.718,0,0,1,5.35-2.28,12.944,12.944,0,0,0,5.586,9.093,25.492,25.492,0,0,0,3.51,1.852q2.087.965,4.168,1.927a9.648,9.648,0,0,1,3.9,2.657c1.478,1.987,1.212,4.722.88,7.175q3.061-2.091,6.125-4.18c.569-.389,1.134-.787,1.667-1.218a1.639,1.639,0,0,1,.221.033,7.136,7.136,0,0,1,3.979,2.842,5.928,5.928,0,0,1,.568.928,3.636,3.636,0,0,1,.419.987,3.26,3.26,0,0,1,.239.928c0,.03.03.06.03.12a7.251,7.251,0,0,1-.15,3.291,10.173,10.173,0,0,1-1.2,2.633.227.227,0,0,0-.06.12c-1.705,2.813-4.638,5.535-7.361,5.775a66.853,66.853,0,0,0-8.617,8.916,31.175,31.175,0,0,0-4.847,8.049v.03a12.614,12.614,0,0,0-.928,5.326,27.922,27.922,0,0,0,4.548,13.345s6.236,7.546,13.375,8.587c-.03-2.035,1.346-3.979,2.633-5.565a55.811,55.811,0,0,0,8.288-13.225,27.193,27.193,0,0,0,2-15.29" transform="translate(437.648 69.844)" fill="#2e3604"/>
          <path id="Path_171" data-name="Path 171" d="M91.457,73.6A20.683,20.683,0,1,1,70.772,52.919,20.682,20.682,0,0,1,91.457,73.6" transform="translate(99.786 105.42)" fill="#fff"/>
          <path id="Path_172" data-name="Path 172" d="M98.632,80.776A20.683,20.683,0,1,1,77.95,60.1,20.684,20.684,0,0,1,98.632,80.776Z" transform="translate(114.08 119.715)" fill="none" stroke="#fff" stroke-miterlimit="10" stroke-width="0.7"/>
          <path id="Path_173" data-name="Path 173" d="M233.711,42.645A13.726,13.726,0,1,1,219.983,28.92,13.727,13.727,0,0,1,233.711,42.645Z" transform="translate(410.887 57.612)" fill="none" stroke="#fff" stroke-miterlimit="10" stroke-width="0.465"/>
          <path id="Path_174" data-name="Path 174" d="M39.711,126.645A13.726,13.726,0,1,1,25.983,112.92a13.727,13.727,0,0,1,13.728,13.725" transform="translate(24.419 224.948)" fill="#fff"/>
          <line id="Line_27" data-name="Line 27" y2="6.915" transform="translate(602.682 100.492)" fill="none" stroke="#fff" stroke-miterlimit="10" stroke-width="0.616"/>
          <line id="Line_28" data-name="Line 28" y2="6.915" transform="translate(602.682 114.397)" fill="none" stroke="#fff" stroke-miterlimit="10" stroke-width="0.616"/>
          <line id="Line_29" data-name="Line 29" x1="6.915" transform="translate(606.177 110.902)" fill="none" stroke="#fff" stroke-miterlimit="10" stroke-width="0.616"/>
          <line id="Line_30" data-name="Line 30" x1="6.915" transform="translate(592.272 110.902)" fill="none" stroke="#fff" stroke-miterlimit="10" stroke-width="0.616"/>
          <line id="Line_31" data-name="Line 31" x1="4.889" y2="4.889" transform="translate(605.154 103.541)" fill="none" stroke="#fff" stroke-miterlimit="10" stroke-width="0.616"/>
          <line id="Line_32" data-name="Line 32" x1="4.889" y2="4.889" transform="translate(595.321 113.374)" fill="none" stroke="#fff" stroke-miterlimit="10" stroke-width="0.616"/>
          <line id="Line_33" data-name="Line 33" x1="4.889" y1="4.889" transform="translate(605.154 113.374)" fill="none" stroke="#fff" stroke-miterlimit="10" stroke-width="0.616"/>
          <line id="Line_34" data-name="Line 34" x1="4.889" y1="4.889" transform="translate(595.321 103.541)" fill="none" stroke="#fff" stroke-miterlimit="10" stroke-width="0.616"/>
          <line id="Line_35" data-name="Line 35" y2="6.915" transform="translate(259.588 115.951)" fill="none" stroke="#fff" stroke-miterlimit="10" stroke-width="0.616"/>
          <line id="Line_36" data-name="Line 36" y2="6.915" transform="translate(259.588 129.857)" fill="none" stroke="#fff" stroke-miterlimit="10" stroke-width="0.616"/>
          <line id="Line_37" data-name="Line 37" x1="6.915" transform="translate(263.083 126.361)" fill="none" stroke="#fff" stroke-miterlimit="10" stroke-width="0.616"/>
          <line id="Line_38" data-name="Line 38" x1="6.915" transform="translate(249.178 126.361)" fill="none" stroke="#fff" stroke-miterlimit="10" stroke-width="0.616"/>
          <line id="Line_39" data-name="Line 39" x1="4.889" y2="4.889" transform="translate(262.06 119)" fill="none" stroke="#fff" stroke-miterlimit="10" stroke-width="0.616"/>
          <line id="Line_40" data-name="Line 40" x1="4.889" y2="4.889" transform="translate(252.227 128.833)" fill="none" stroke="#fff" stroke-miterlimit="10" stroke-width="0.616"/>
          <line id="Line_41" data-name="Line 41" x1="4.889" y1="4.889" transform="translate(262.06 128.833)" fill="none" stroke="#fff" stroke-miterlimit="10" stroke-width="0.616"/>
          <line id="Line_42" data-name="Line 42" x1="4.889" y1="4.889" transform="translate(252.227 119)" fill="none" stroke="#fff" stroke-miterlimit="10" stroke-width="0.616"/>
          <line id="Line_43" data-name="Line 43" y2="6.915" transform="translate(506.93 200.789)" fill="none" stroke="#fff" stroke-miterlimit="10" stroke-width="0.616"/>
          <line id="Line_44" data-name="Line 44" y2="6.915" transform="translate(506.93 214.695)" fill="none" stroke="#fff" stroke-miterlimit="10" stroke-width="0.616"/>
          <line id="Line_45" data-name="Line 45" x1="6.915" transform="translate(510.425 211.2)" fill="none" stroke="#fff" stroke-miterlimit="10" stroke-width="0.616"/>
          <line id="Line_46" data-name="Line 46" x1="6.915" transform="translate(496.52 211.2)" fill="none" stroke="#fff" stroke-miterlimit="10" stroke-width="0.616"/>
          <line id="Line_47" data-name="Line 47" x1="4.889" y2="4.889" transform="translate(509.402 203.839)" fill="none" stroke="#fff" stroke-miterlimit="10" stroke-width="0.616"/>
          <line id="Line_48" data-name="Line 48" x1="4.889" y2="4.889" transform="translate(499.569 213.671)" fill="none" stroke="#fff" stroke-miterlimit="10" stroke-width="0.616"/>
          <line id="Line_49" data-name="Line 49" x1="4.889" y1="4.889" transform="translate(509.402 213.671)" fill="none" stroke="#fff" stroke-miterlimit="10" stroke-width="0.616"/>
          <line id="Line_50" data-name="Line 50" x1="4.889" y1="4.889" transform="translate(499.569 203.839)" fill="none" stroke="#fff" stroke-miterlimit="10" stroke-width="0.616"/>
          <line id="Line_51" data-name="Line 51" y2="6.915" transform="translate(618.635 194.805)" fill="none" stroke="#fff" stroke-miterlimit="10" stroke-width="0.616"/>
          <line id="Line_52" data-name="Line 52" y2="6.915" transform="translate(618.635 208.711)" fill="none" stroke="#fff" stroke-miterlimit="10" stroke-width="0.616"/>
          <line id="Line_53" data-name="Line 53" x1="6.915" transform="translate(622.131 205.215)" fill="none" stroke="#fff" stroke-miterlimit="10" stroke-width="0.616"/>
          <line id="Line_54" data-name="Line 54" x1="6.915" transform="translate(608.225 205.215)" fill="none" stroke="#fff" stroke-miterlimit="10" stroke-width="0.616"/>
          <line id="Line_55" data-name="Line 55" x1="4.889" y2="4.889" transform="translate(621.107 197.854)" fill="none" stroke="#fff" stroke-miterlimit="10" stroke-width="0.616"/>
          <line id="Line_56" data-name="Line 56" x1="4.889" y2="4.889" transform="translate(611.274 207.687)" fill="none" stroke="#fff" stroke-miterlimit="10" stroke-width="0.616"/>
          <line id="Line_57" data-name="Line 57" x1="4.889" y1="4.889" transform="translate(621.107 207.687)" fill="none" stroke="#fff" stroke-miterlimit="10" stroke-width="0.616"/>
          <line id="Line_58" data-name="Line 58" x1="4.889" y1="4.889" transform="translate(611.274 197.855)" fill="none" stroke="#fff" stroke-miterlimit="10" stroke-width="0.616"/>
          <path id="Path_175" data-name="Path 175" d="M223.781,193.148c1.592-8.121,5.14-72,6.092-75.939s6.565-7.863,9.8-10.637,6.5-13.59,4.03-19.658c-2.442-6.014-6.595-9.365-10.712-13.826-1.58-2-3.193-3.57-3.492-5.529-.61-4.03,1.415-14.763,1.415-14.763l-11.792-2.31s-2.172,10.7-4.264,14.2c-1.014,1.7-3.1,2.543-5.317,3.8-5.5,2.576-10.61,4.114-15.14,8.761-4.572,4.689-5.634,15.936-3.686,19.727s5.664,9.539,5.06,13.548-21.432,64.5-23.024,72.621l-2.029,10.365h0l-1.957,9.976s-1.349,6.9,5.769,8.1c6.253,1.056,5.96-4.153,9.252-3.375s1.861,2.445,3.713,4.5c2.166,2.4,8.575,3.653,11.487,2.25,2.486-1.2,1.789-3.282,5.131-2.762s1.1,5.233,7.295,6.619c7.046,1.574,8.4-5.323,8.4-5.323l1.954-9.976-.018,0,2.032-10.365" transform="translate(335.999 100.571)" fill="#b9eaea"/>
          <g id="Group_326" data-name="Group 326" transform="translate(533.064 174.344)" opacity="0.58">
            <g id="Group_325" data-name="Group 325">
              <g id="Group_324" data-name="Group 324" clip-path="url(#clip-path-18)">
                <path id="Path_176" data-name="Path 176" d="M181.839,60.435c-1.708.99-3.683,2.277-3.683,4.252a3.846,3.846,0,0,0,1.921,3.07,11.325,11.325,0,0,0,3.54,1.266q5.947,1.4,11.894,2.807c1.867.44,4.069.8,5.5-.473a4.859,4.859,0,0,0,1.281-2.289c.793-2.633.6-5.76-1.272-7.776-1.053-1.137-3.459-1.541-5.529-2.148a16.9,16.9,0,0,0-13.647,1.293" transform="translate(-178.159 -58.268)" fill="#fff"/>
              </g>
            </g>
          </g>
          <g id="Group_329" data-name="Group 329" transform="translate(550.4 163.644)" opacity="0.58">
            <g id="Group_328" data-name="Group 328">
              <g id="Group_327" data-name="Group 327" clip-path="url(#clip-path-19)">
                <path id="Path_177" data-name="Path 177" d="M186.7,55.714a11.776,11.776,0,0,0-.724,2.343,13.221,13.221,0,0,1-1.5,2.884c-.362.6-.721,1.37-.407,1.966a1.421,1.421,0,0,0,.781.607,2.082,2.082,0,0,0,1.23.174c.862-.188,1.421-1.143,1.8-2.032a19.151,19.151,0,0,0,1.394-5.308c.084-.757-.009-1.547-.763-1.646a1.991,1.991,0,0,0-1.81,1.011" transform="translate(-183.952 -54.691)" fill="#fff"/>
              </g>
            </g>
          </g>
          <path id="Path_178" data-name="Path 178" d="M223.787,192.288c1.592-8.121,5.14-72,6.092-75.939s6.565-7.863,9.8-10.637,6.5-13.59,4.03-19.658c-2.442-6.014-6.595-9.365-10.712-13.826-1.58-2-3.193-3.57-3.492-5.529-.61-4.03,1.415-14.763,1.415-14.763l-5.182-1.017s-2.026,10.733-1.415,14.766c.3,1.96,1.912,3.525,3.492,5.526,4.117,4.464,8.27,7.815,10.712,13.826,2.466,6.071-.8,16.884-4.03,19.661-1.682,1.442-4.006,3.2-5.984,5.1l-18.1,1.975,14.509,2.845a6,6,0,0,0-.224.718c-.951,3.938-4.5,67.819-6.092,75.939s-2.032,10.365-2.032,10.365l.018,0s-.844,12.953-3.4,13.078c-4.979.033-5.063-6.23-8.4-6.75s-2.642,1.541-5.125,2.723c-2.908,1.382-9.317.129-11.487-2.25-1.858-2.035-.428-3.68-3.719-4.458s-2.989,4.38-9.243,3.324c-7.118-1.2-5.784-8.028-5.784-8.028l-.667,3.42s-1.337,6.822,5.781,8.028c6.253,1.056,5.951-4.1,9.243-3.324s1.864,2.424,3.719,4.455c2.169,2.379,8.578,3.635,11.487,2.253,2.483-1.182,1.783-3.246,5.125-2.723s1.113,5.182,7.3,6.565c7.046,1.571,8.384-5.251,8.384-5.251l.015-.072.655-3.348,1.3-6.628-.018,0,2.032-10.365" transform="translate(335.993 101.432)" fill="#b9eaea"/>
          <path id="Path_179" data-name="Path 179" d="M198.148,62.223l-12.295-2.409a1.792,1.792,0,0,1-1.412-2.1l1.227-6.248a1.787,1.787,0,0,1,2.1-1.412l12.292,2.409a1.79,1.79,0,0,1,1.412,2.1l-1.224,6.248a1.789,1.789,0,0,1-2.1,1.412" transform="translate(367.359 99.644)" fill="#a9d8d5"/>
          <path id="Path_180" data-name="Path 180" d="M198.488,57.64l-13.6-2.666a.63.63,0,0,1-.5-.739l.042-.209a.628.628,0,0,1,.739-.5l13.6,2.663a.635.635,0,0,1,.5.742l-.042.209a.63.63,0,0,1-.739.5" transform="translate(367.304 106.611)" fill="#a9d8d5"/>
          <g id="Group_332" data-name="Group 332" transform="translate(513.19 214.258)" opacity="0.58">
            <g id="Group_331" data-name="Group 331">
              <g id="Group_330" data-name="Group 330" clip-path="url(#clip-path-20)">
                <path id="Path_181" data-name="Path 181" d="M197.7,71.611c-1.49-.039-2.43.326-3.788,5.589s-21.651,71.583-22.115,73.109c-.661,2.184-.26,5.586,2.262,6.382,2.358.742,4.647.9,6.212-4.18S198.433,80.4,199,78.169s1.287-6.49-1.3-6.559" transform="translate(-171.516 -71.608)" fill="#fff"/>
              </g>
            </g>
          </g>
          <rect id="Rectangle_368" data-name="Rectangle 368" width="53.035" height="87.982" transform="translate(303.795 245.038) rotate(-22.797)" fill="#ced5d0"/>
          <path id="Path_182" data-name="Path 182" d="M112.925,115.843l6.478,4.536,20.562-8.641-2.594-6.17Z" transform="translate(224.958 210.303)" fill="#ced5d0"/>
          <path id="Path_183" data-name="Path 183" d="M145.541,102.135l-1.293,7.8-20.562,8.641L121.1,112.41Z" transform="translate(241.235 203.463)" fill="#ced5d0"/>
          <path id="Path_184" data-name="Path 184" d="M101.533,91.433l2.011-5.613,20.732-8.713,1.7,4.051Z" transform="translate(202.263 153.605)" fill="#ced5d0"/>
          <path id="Path_185" data-name="Path 185" d="M135.284,76.687l-5.416-2.492-20.735,8.713,1.705,4.054Z" transform="translate(217.405 147.802)" fill="#ced5d0"/>
          <path id="Path_186" data-name="Path 186" d="M145.454,76.9,104.181,94.245a2.1,2.1,0,1,1-1.631-3.878l41.27-17.345a2.1,2.1,0,1,1,1.634,3.878" transform="translate(201.722 145.138)" fill="#ced5d0"/>
          <g id="Group_335" data-name="Group 335" transform="translate(303.001 217.995)" opacity="0.33">
            <g id="Group_334" data-name="Group 334">
              <g id="Group_333" data-name="Group 333" clip-path="url(#clip-path-21)">
                <path id="Path_187" data-name="Path 187" d="M146.44,73.9l-.027-.039a1.734,1.734,0,0,0-.15-.215,2.106,2.106,0,0,0-2.457-.625l-12.223,5.137a2.1,2.1,0,0,1,2.753,1.125,1.993,1.993,0,0,1,.159.966L103.722,93.182a2.1,2.1,0,0,1-2.454-.622,1.925,1.925,0,0,0,.144.563,2.1,2.1,0,0,0,2.753,1.125l29.05-12.211L145.437,76.9a2.084,2.084,0,0,0,1-3" transform="translate(-101.265 -72.856)" fill="#777589"/>
              </g>
            </g>
          </g>
          <g id="Group_338" data-name="Group 338" transform="translate(323.512 263.882)" opacity="0.23">
            <g id="Group_337" data-name="Group 337">
              <g id="Group_336" data-name="Group 336" clip-path="url(#clip-path-22)">
                <path id="Path_188" data-name="Path 188" d="M153.854,88.193a14.98,14.98,0,0,1-6.514,3.127c-2.322.47-4.737.38-7.04.94a13.015,13.015,0,0,0-9.087,8.333c-.536,1.592-.754,3.279-1.34,4.85-1.619,4.339-5.9,7.262-10.4,8.369-3.151.778-6.466.808-9.569,1.762a14.156,14.156,0,0,0-1.783.688l14.356,34.161,48.894-20.547Z" transform="translate(-108.12 -88.193)" fill="#777589"/>
              </g>
            </g>
          </g>
          <g id="Group_341" data-name="Group 341" transform="translate(334.834 221.972)" opacity="0.23">
            <g id="Group_340" data-name="Group 340">
              <g id="Group_339" data-name="Group 339" clip-path="url(#clip-path-23)">
                <path id="Path_189" data-name="Path 189" d="M124.4,74.186l-12.5,5.251,4.892,2.714,34.089,81.11-.027,7.268,11.855-4.982,1.29-7.8-34.086-81.11Z" transform="translate(-111.906 -74.186)" fill="#777589"/>
              </g>
            </g>
          </g>
          <g id="Group_344" data-name="Group 344" transform="translate(317.997 256.582)" opacity="0.35">
            <g id="Group_343" data-name="Group 343">
              <g id="Group_342" data-name="Group 342" clip-path="url(#clip-path-24)">
                <path id="Path_190" data-name="Path 190" d="M106.431,91.361A37.348,37.348,0,0,0,109.223,99q9.645,21.431,19.287,42.859c1.269,2.822,3.142,6.14,5.673,6.313,2.136.147,3.474-2.3,3.378-4.8s-1.23-4.976-2.316-7.349q-9.335-20.376-17.082-41.4a20.663,20.663,0,0,0-3.447-6.723c-3.516-3.953-9.461-2.244-8.285,3.462" transform="translate(-106.278 -85.754)" fill="#fff"/>
              </g>
            </g>
          </g>
          <g id="Group_347" data-name="Group 347" transform="translate(312.247 242.869)" opacity="0.35">
            <g id="Group_346" data-name="Group 346">
              <g id="Group_345" data-name="Group 345" clip-path="url(#clip-path-25)">
                <path id="Path_191" data-name="Path 191" d="M105.544,81.987c-.278-.191-.524.021-.673.263-.94,1.514-.551,4.461.853,6.388s3.611,2.552,4.784,1.355,1.146-4.042-.066-6.167-3.42-3.216-4.793-2.37Z" transform="translate(-104.356 -81.17)" fill="#fff"/>
              </g>
            </g>
          </g>
          <path id="Path_192" data-name="Path 192" d="M144.816,226.83a8.042,8.042,0,0,1-8.052-8.046l.1-89.94a36.8,36.8,0,0,1,9.8-24.966,21.29,21.29,0,0,0,5.676-13.306l.3-5.161,1.376-24.269,1.442-25.457.069-1.394-1.984-1.622-.024-.024,1.933-13.309,23.961.027,1.9,13.312-.024.024-1.987,1.619.066,1.394,1.388,25.46,1.319,24.272.293,5.161a21.3,21.3,0,0,0,5.646,13.318,36.788,36.788,0,0,1,9.745,24.99l-.1,89.937a8.04,8.04,0,0,1-8.07,8.028Z" transform="translate(272.448 38.521)" fill="#b7d610"/>
          <g id="Group_350" data-name="Group 350" transform="translate(411.501 142.517)" opacity="0.5">
            <g id="Group_349" data-name="Group 349">
              <g id="Group_348" data-name="Group 348" clip-path="url(#clip-path-26)">
                <path id="Path_193" data-name="Path 193" d="M148.05,47.631c-.389.5-.8.981-1.227,1.445a34.389,34.389,0,0,0-9.2,23.4l-.1,89.946a5.762,5.762,0,0,0,5.751,5.766,47.3,47.3,0,0,1,44.8.051,5.766,5.766,0,0,0,5.766-5.754l.1-89.946A34.372,34.372,0,0,0,184.8,49.118c-.428-.467-.832-.951-1.221-1.448Z" transform="translate(-137.527 -47.631)" fill="#a5db14"/>
              </g>
            </g>
          </g>
          <path id="Path_194" data-name="Path 194" d="M145.206,23.167a2.662,2.662,0,0,1-2.579-2.735v-.054a2.66,2.66,0,0,1,2.585-2.729l21.094.021a2.664,2.664,0,0,1,2.579,2.735v.057a2.664,2.664,0,0,1-2.585,2.729Z" transform="translate(284.127 35.161)" fill="#77a68a"/>
          <g id="Group_353" data-name="Group 353" transform="translate(425.991 71.167)" opacity="0.5">
            <g id="Group_352" data-name="Group 352">
              <g id="Group_351" data-name="Group 351" clip-path="url(#clip-path-27)">
                <path id="Path_195" data-name="Path 195" d="M144.287,26.823l.069-1.391-1.984-1.625a4.059,4.059,0,0,1,.5-.021l26.743.027a3.515,3.515,0,0,1,.5.024l-1.987,1.619.066,1.394Z" transform="translate(-142.372 -23.783)" fill="#85af04"/>
              </g>
            </g>
          </g>
          <g id="Group_356" data-name="Group 356" transform="translate(413.478 77.771)" opacity="0.5">
            <g id="Group_355" data-name="Group 355">
              <g id="Group_354" data-name="Group 354" clip-path="url(#clip-path-28)">
                <path id="Path_196" data-name="Path 196" d="M159.275,25.992c.739.042.835,10.206.392,26.6-.135,4.1-.278,8.59-.434,13.408q-.139,3.613-.29,7.465-.081,1.925-.168,3.9a33.092,33.092,0,0,1-.461,4.291,29.622,29.622,0,0,1-2.831,8.575,31.068,31.068,0,0,1-2.448,4,19.054,19.054,0,0,1-1.469,1.873l-1.418,1.7a27.588,27.588,0,0,0-6.451,15.053c-.224,2.717-.132,5.984-.168,8.991q-.027,4.569-.051,8.994c-.06,5.9-.12,11.585-.177,17.007-.147,10.84-.353,20.6-.6,28.8-.5,16.394-1.182,26.534-1.924,26.534s-1.4-10.143-1.864-26.54c-.233-8.2-.419-17.959-.545-28.8-.042-5.422-.09-11.11-.138-17.007q-.014-4.421-.03-8.994c.03-3.085-.108-6.005.171-9.527a32.305,32.305,0,0,1,7.806-17.941l1.427-1.664a15.119,15.119,0,0,0,1.245-1.538,26.519,26.519,0,0,0,2.091-3.291,25.256,25.256,0,0,0,2.522-7.118,28.9,28.9,0,0,0,.491-3.671q.148-1.979.287-3.9.287-3.837.56-7.45c.389-4.8.751-9.276,1.083-13.366,1.412-16.343,2.654-26.429,3.393-26.387" transform="translate(-138.19 -25.992)" fill="#f6f6f6"/>
              </g>
            </g>
          </g>
          <path id="Path_197" data-name="Path 197" d="M393.084,102.752a16.675,16.675,0,0,1-1.556,1.706c-14.153,13.853-33.512,32.375-49.011,44.732-1.2.957-2.394,1.885-3.561,2.753-5.685,4.339-11.639,8.677-17.8,12.956a30.55,30.55,0,0,1-33.122,1.047c-4.937-2.992-9.874-6.074-14.781-9.305-21.812-14.332-42.817-31.267-60.62-50.9-6.014-2.274-18.641-7.391-21.812-11.639-.928-1.257,2.154-.9,6.074.359,0,0-8.737-6.074-9.4-7.241-.568-1.107,12.118,4.159,13.7,4.787-1.526-.957-14-8.827-13.794-10.233.18-1.466,12.9,4.877,14.332,5.565-1.227-.778-11.161-7.181-10.891-8.557.3-1.466,17,7.211,17,7.211s-1.556-7.54.568-7.361c2.124.15,6.553,6.642,7.839,9.365a5.709,5.709,0,0,0,1.317,1.586,12.06,12.06,0,0,0,1.107.928c.3.269.628.509.987.778v-.03s2,1.227,5.775,3.441l.209.12c11.639,6.822,39.526,22.68,75.82,40.034,16.965-13.554,42.787-37.94,63.283-57.9a17.486,17.486,0,0,1,3.86-2.872A18.933,18.933,0,0,1,392.336,78.1a1.943,1.943,0,0,1,.239.269,19.034,19.034,0,0,1,.509,24.386" transform="translate(373.328 142.588)" fill="#ffc8b0"/>
          <path id="Path_198" data-name="Path 198" d="M544.014,167.2H45.356a4.892,4.892,0,0,1-4.892-4.892v-39.37a4.892,4.892,0,0,1,4.892-4.892H544.014a4.892,4.892,0,0,1,4.892,4.892V162.3a4.892,4.892,0,0,1-4.892,4.892" transform="translate(80.608 235.15)" fill="#b7d610"/>
          <g id="Group_359" data-name="Group 359" transform="translate(152.368 306.346)" opacity="0.3">
            <g id="Group_358" data-name="Group 358">
              <g id="Group_357" data-name="Group 357" clip-path="url(#clip-path-29)">
                <path id="Path_199" data-name="Path 199" d="M496.77,141.163H50.923l59.4-35.714a20.6,20.6,0,0,1,6.5-2.442,29.134,29.134,0,0,1,6.176-.622H424.72a29.815,29.815,0,0,1,6.038.6,20.7,20.7,0,0,1,6.633,2.465Z" transform="translate(-50.924 -102.385)" fill="#d4e670"/>
              </g>
            </g>
          </g>
        </g>
      </g>
    </g>
  </g>
</svg>
